<mxfile host="app.diagrams.net" agent="Mozilla/5.0 (Macintosh; Intel Mac OS X 10.15; rv:134.0) Gecko/20100101 Firefox/134.0" version="26.0.5">
  <diagram name="Page-1" id="AOs6nQdaXtGJ0W0k99eN">
    <mxGraphModel dx="1194" dy="717" grid="1" gridSize="10" guides="1" tooltips="1" connect="1" arrows="1" fold="1" page="1" pageScale="1" pageWidth="850" pageHeight="1100" math="0" shadow="0">
      <root>
        <mxCell id="0" />
        <mxCell id="1" parent="0" />
        <mxCell id="TenHdxWF8-u8kMKbIQkl-1" value="&lt;font style=&quot;font-size: 14px;&quot;&gt;Input Embedding&lt;/font&gt;" style="rounded=1;whiteSpace=wrap;html=1;" vertex="1" parent="1">
          <mxGeometry x="350" y="900" width="150" height="40" as="geometry" />
        </mxCell>
        <mxCell id="TenHdxWF8-u8kMKbIQkl-2" value="" style="shape=orEllipse;perimeter=ellipsePerimeter;whiteSpace=wrap;html=1;backgroundOutline=1;" vertex="1" parent="1">
          <mxGeometry x="405" y="810" width="40" height="40" as="geometry" />
        </mxCell>
        <mxCell id="TenHdxWF8-u8kMKbIQkl-3" value="" style="endArrow=classic;html=1;rounded=0;entryX=0.5;entryY=1;entryDx=0;entryDy=0;" edge="1" parent="1" target="TenHdxWF8-u8kMKbIQkl-2">
          <mxGeometry width="50" height="50" relative="1" as="geometry">
            <mxPoint x="425" y="900" as="sourcePoint" />
            <mxPoint x="475" y="860" as="targetPoint" />
          </mxGeometry>
        </mxCell>
      </root>
    </mxGraphModel>
  </diagram>
</mxfile>
